<svg width="82" height="70" viewBox="0 0 82 70" fill="none" xmlns="http://www.w3.org/2000/svg">
<path d="M67.4755 12.0107H14.2584V69.1274H67.4755V12.0107Z" fill="url(#paint0_linear)"/>
<path d="M14.0382 12.0107C14.1024 12.0107 14.1666 12.0383 14.2584 12.0658C14.2584 31.068 14.2584 50.0701 14.2584 69.0998C10.1386 69.421 6.66118 68.3841 3.89939 65.7233C1.94504 63.8332 0.999978 61.6127 0.999978 59.0987C0.999978 50.1986 0.999978 41.3077 0.999978 32.4076C0.999978 29.0127 0.990802 25.6178 0.990802 22.2229C0.990802 18.1215 3.20207 15.1395 7.26675 13.1209C9.35873 12.0933 11.6801 11.9373 14.0382 12.0107Z" fill="url(#paint1_linear)"/>
<path d="M58.1809 12.0016C60.5573 12.0016 60.7958 12.0016 63.1631 12.0016C63.1631 31.068 63.1631 50.0701 63.1631 69.109C47.0053 69.109 34.7837 69.109 18.5708 69.109C18.5708 50.0793 18.5708 31.0771 18.5708 12.0199C20.9381 12.0199 21.4519 12.0199 23.865 12.0199C23.865 11.7813 23.865 11.5978 23.865 11.4235C23.865 9.3774 23.8742 7.32212 23.8558 5.27601C23.8375 3.84466 24.2228 2.59681 25.3422 1.62422C26.1313 0.945241 27.0397 0.596578 28.0673 0.596578C31.2512 0.587402 34.4259 0.587402 37.6097 0.587402C42.9589 0.587402 48.3174 0.596578 53.6666 0.587402C55.0704 0.587402 56.2357 1.04617 57.1532 2.11051C57.8873 2.96382 58.1625 3.96394 58.1625 5.08333C58.1533 7.23954 58.1625 9.39575 58.1625 11.552C58.1533 11.6712 58.1625 11.8089 58.1809 12.0016ZM29.6088 12.0016C29.829 12.0016 29.9941 12.0016 30.1593 12.0016C32.6917 12.0016 35.2333 12.0016 37.7657 12.0016C42.5002 12.0016 47.2438 12.0016 51.9783 12.0107C52.3545 12.0107 52.4371 11.8914 52.4371 11.5336C52.4187 9.92792 52.4371 8.32223 52.4371 6.71654C52.4371 6.58809 52.4187 6.45963 52.4004 6.322C44.7848 6.322 37.2152 6.322 29.6088 6.322C29.6088 8.21213 29.6088 10.0656 29.6088 12.0016Z" fill="white"/>
<mask id="mask0" mask-type="alpha" maskUnits="userSpaceOnUse" x="18" y="0" width="46" height="70">
<path d="M58.1808 12.0016C60.5573 12.0016 60.7958 12.0016 63.1631 12.0016C63.1631 31.068 63.1631 50.0701 63.1631 69.109C47.0053 69.109 34.7837 69.109 18.5708 69.109C18.5708 50.0793 18.5708 31.0771 18.5708 12.0199C20.938 12.0199 21.4519 12.0199 23.865 12.0199C23.865 11.7813 23.865 11.5978 23.865 11.4235C23.865 9.3774 23.8742 7.32212 23.8558 5.27601C23.8375 3.84466 24.2228 2.59681 25.3422 1.62422C26.1313 0.945241 27.0397 0.596578 28.0673 0.596578C31.2512 0.587402 34.4258 0.587402 37.6097 0.587402C42.9589 0.587402 48.3173 0.596578 53.6666 0.587402C55.0704 0.587402 56.2357 1.04617 57.1532 2.11051C57.8872 2.96382 58.1625 3.96394 58.1625 5.08333C58.1533 7.23954 58.1625 9.39575 58.1625 11.552C58.1533 11.6712 58.1625 11.8089 58.1808 12.0016ZM29.6088 12.0016C29.829 12.0016 29.9941 12.0016 30.1593 12.0016C32.6917 12.0016 35.2333 12.0016 37.7657 12.0016C42.5002 12.0016 47.2438 12.0016 51.9783 12.0107C52.3545 12.0107 52.4371 11.8914 52.4371 11.5336C52.4187 9.92792 52.4371 8.32223 52.4371 6.71654C52.4371 6.58809 52.4187 6.45963 52.4004 6.322C44.7848 6.322 37.2151 6.322 29.6088 6.322C29.6088 8.21213 29.6088 10.0656 29.6088 12.0016Z" fill="#F7F9FC"/>
</mask>
<g mask="url(#mask0)">
<path d="M59.096 -2H22V12.02H59.096V-2Z" fill="url(#paint2_linear)"/>
</g>
<path d="M81 22.0761C81 18.2958 78.9356 15.479 75.2654 13.4329C73.0083 12.1758 70.4483 11.9373 67.8242 11.9923C67.4205 12.0015 67.4755 12.2125 67.4755 12.4328C67.4755 19.039 67.4755 25.6361 67.4755 32.2424C67.4755 43.8492 67.4755 55.4469 67.4663 67.0537C67.4663 67.7235 67.4663 68.3933 67.4663 69.1182C69.1179 69.1732 70.6869 69.1824 72.2284 68.8154C77.44 67.5859 80.9908 63.7047 80.9908 59.1262C81.0092 46.7853 81 34.4261 81 22.0761Z" fill="url(#paint3_linear)"/>
<path d="M45.2161 44.7852C45.2161 45.9688 45.2161 47.0882 45.2161 48.2168C45.2161 49.4921 45.2161 50.7675 45.2161 52.0337C45.2161 52.7953 44.8307 53.199 44.0783 53.199C42.0047 53.2082 39.9311 53.2082 37.8574 53.199C37.1693 53.199 36.7839 52.7677 36.7839 52.0429C36.7839 49.7674 36.7839 47.4919 36.7839 45.2164C36.7839 45.088 36.7839 44.9503 36.7839 44.7852C36.6096 44.7852 36.4811 44.7852 36.3435 44.7852C34.1047 44.7852 31.8567 44.7852 29.618 44.7852C28.7279 44.7852 28.3609 44.4273 28.3609 43.5373C28.3609 41.5646 28.3609 39.5919 28.3609 37.6192C28.3609 36.72 28.7188 36.3622 29.6088 36.3622C31.8384 36.3622 34.068 36.3622 36.2976 36.3622C36.4444 36.3622 36.5821 36.3622 36.7747 36.3622C36.7747 36.2154 36.7747 36.0961 36.7747 35.9768C36.7747 33.7013 36.7747 31.4258 36.7747 29.1504C36.7747 28.3062 37.1509 27.9392 37.9951 27.9392C39.9678 27.9392 41.9405 27.9392 43.9132 27.9392C44.8399 27.9392 45.1977 28.2879 45.1977 29.2329C45.2069 31.4901 45.1977 33.738 45.1977 35.9952C45.1977 36.1053 45.1977 36.2154 45.1977 36.3714C45.3445 36.3714 45.473 36.3714 45.5923 36.3714C47.8678 36.3714 50.1433 36.3714 52.4187 36.3805C53.2537 36.3805 53.6115 36.7476 53.6115 37.5825C53.6115 39.5644 53.6115 41.5463 53.6115 43.5282C53.6115 44.4365 53.2629 44.7852 52.3729 44.7852C50.1065 44.7852 47.8402 44.7852 45.5831 44.7944C45.4913 44.7852 45.3812 44.7852 45.2161 44.7852Z" fill="url(#paint4_linear)"/>
<defs>
<linearGradient id="paint0_linear" x1="14.2597" y1="40.5656" x2="67.473" y2="40.5656" gradientUnits="userSpaceOnUse">
<stop stop-color="#B0F4FF"/>
<stop offset="1" stop-color="#69DCFC"/>
</linearGradient>
<linearGradient id="paint1_linear" x1="0.999978" y1="40.5746" x2="14.2597" y2="40.5746" gradientUnits="userSpaceOnUse">
<stop stop-color="#6CBCFC"/>
<stop offset="1" stop-color="#458DFC"/>
</linearGradient>
<linearGradient id="paint2_linear" x1="21.9962" y1="5.00849" x2="59.0944" y2="5.00849" gradientUnits="userSpaceOnUse">
<stop stop-color="#6CBCFC"/>
<stop offset="1" stop-color="#458DFC"/>
</linearGradient>
<linearGradient id="paint3_linear" x1="67.4686" y1="40.5689" x2="81.0007" y2="40.5689" gradientUnits="userSpaceOnUse">
<stop stop-color="#6CBCFC"/>
<stop offset="1" stop-color="#458DFC"/>
</linearGradient>
<linearGradient id="paint4_linear" x1="28.3666" y1="40.5783" x2="53.6299" y2="40.5783" gradientUnits="userSpaceOnUse">
<stop stop-color="#6CBCFC"/>
<stop offset="1" stop-color="#458DFC"/>
</linearGradient>
</defs>
</svg>
